<?xml version="1.0" encoding="UTF-8"?>
<svg width="200" height="200" viewBox="0 0 200 200" xmlns="http://www.w3.org/2000/svg">
  <!-- Background Glow -->
  <defs>
    <radialGradient id="glow" cx="50%" cy="50%" r="50%" fx="50%" fy="50%">
      <stop offset="0%" style="stop-color:#ff2e63;stop-opacity:0.3"/>
      <stop offset="100%" style="stop-color:#08f7fe;stop-opacity:0.1"/>
    </radialGradient>
  </defs>
  
  <!-- Glow Effect -->
  <circle cx="100" cy="100" r="90" fill="url(#glow)"/>
  
  <!-- Face -->
  <path d="M100 60 C 130 60, 150 80, 150 110 C 150 140, 130 160, 100 160 C 70 160, 50 140, 50 110 C 50 80, 70 60, 100 60" 
        fill="#ff2e63" stroke="#08f7fe" stroke-width="2"/>
  
  <!-- Eyes -->
  <path d="M80 100 Q 85 90, 90 100 Q 95 110, 100 100" 
        fill="none" stroke="#08f7fe" stroke-width="2"/>
  <path d="M110 100 Q 115 90, 120 100 Q 125 110, 130 100" 
        fill="none" stroke="#08f7fe" stroke-width="2"/>
  
  <!-- Hair -->
  <path d="M50 110 C 40 90, 60 70, 80 80 C 100 90, 120 70, 140 80 C 160 90, 150 110, 150 110" 
        fill="#ff2e63" stroke="#08f7fe" stroke-width="2"/>
  
  <!-- Decorative Elements -->
  <circle cx="70" cy="85" r="3" fill="#08f7fe"/>
  <circle cx="130" cy="85" r="3" fill="#08f7fe"/>
  
  <!-- Tech Lines -->
  <path d="M40 120 L 60 120" stroke="#08f7fe" stroke-width="1" opacity="0.5"/>
  <path d="M140 120 L 160 120" stroke="#08f7fe" stroke-width="1" opacity="0.5"/>
  <path d="M100 40 L 100 60" stroke="#08f7fe" stroke-width="1" opacity="0.5"/>
  <path d="M100 160 L 100 180" stroke="#08f7fe" stroke-width="1" opacity="0.5"/>
</svg> 